<?xml version="1.0" encoding="UTF-8"?>
<svg width="24" height="24" viewBox="0 0 24 24" fill="none" xmlns="http://www.w3.org/2000/svg">
<path d="M12 2C10.5 4.5 7.5 6 5 8C2.5 10 2 13 2 15C2 17 3 19 4 20C5 21 6 22 8 22C10 22 11 21 12 20C13 21 14 22 16 22C18 22 19 21 20 20C21 19 22 17 22 15C22 13 21.5 10 19 8C16.5 6 13.5 4.5 12 2Z" fill="url(#paint0_linear_254_1295)"/>
<defs>
<linearGradient id="paint0_linear_254_1295" x1="12" y1="2" x2="12" y2="22" gradientUnits="userSpaceOnUse">
<stop stop-color="#DB2777"/>
<stop offset="1" stop-color="#9333EA"/>
</linearGradient>
</defs>
</svg>