<svg width="245" height="197" viewBox="0 0 245 197" fill="none" xmlns="http://www.w3.org/2000/svg">
<path d="M42.5485 168.001H182.642C189.36 168.001 194.972 162.882 195.587 156.192L204.358 60.9158C204.996 53.9768 200.05 47.7683 193.144 46.8401L35.4135 25.6397C27.2188 24.5383 20.0916 31.2661 20.7192 39.5106L29.586 155.988C30.1019 162.765 35.7515 168.001 42.5485 168.001Z" fill="url(#paint0_linear_329_2326)"/>
<circle cx="200" cy="113.001" r="6" fill="white" stroke="#151C35" stroke-linejoin="round"/>
<circle cx="187" cy="125.001" r="5" fill="white" stroke="#151C35" stroke-linejoin="round"/>
<circle cx="190" cy="141.001" r="4" fill="white" stroke="#151C35" stroke-linejoin="round"/>
<path d="M83.7815 46.0009C80.5815 46.0009 79.1148 50.3342 78.7815 52.5009C76.4481 50.3342 71.2815 46.6009 69.2815 49.0009C67.2815 51.4009 76.4481 57.6675 81.2815 60.5009C83.4481 55.6675 86.9815 46.0009 83.7815 46.0009Z" fill="#F25454" stroke="#151C35" stroke-linejoin="round"/>
<path d="M93.9235 30.5389C92.7452 27.6702 87.0687 30.2355 85.0434 31.4493C85.0434 29.0217 84.4826 24.3488 82.2392 25.077C79.9958 25.8053 81.3044 32.663 82.2392 36.0009C87.0687 35.0905 94.8582 32.8147 93.9235 30.5389Z" fill="#F25454" stroke="#151C35" stroke-linejoin="round"/>
<path d="M97.4951 39.0471C99.4994 39.5411 100 45.2221 100 48.0009C96.8687 48.0009 90.9184 46.7659 92.1712 44.6046C92.6986 43.6948 94.9897 43.8842 95.9292 43.9871C95.6161 42.1346 95.4908 38.5531 97.4951 39.0471Z" fill="#F25454" stroke="#151C35" stroke-linejoin="round"/>
<path d="M161.034 161.518V134.08L153.107 129.202L144.571 134.08C145.79 140.584 148.229 154.811 148.229 159.689C148.229 165.786 147.01 175.542 147.01 177.372C147.01 179.201 156.156 185.908 157.985 184.689C159.814 183.469 159.814 172.494 161.034 171.274C162.253 170.055 170.79 174.323 170.79 172.494C170.79 170.664 161.034 165.786 161.034 161.518Z" fill="#EDB98A" stroke="black"/>
<path d="M171.4 28.5942C167.01 32.9843 150.872 49.9352 143.352 57.8619L143.961 68.8373L154.937 68.2276C162.457 58.0652 178.595 37.1306 182.985 34.6916C188.473 31.6429 193.351 27.9844 192.131 26.765C190.912 25.5455 184.814 28.5942 184.814 26.765C184.814 24.9357 187.863 13.3506 187.253 10.9116C186.643 8.47262 184.204 7.86288 181.765 12.1311C179.326 16.3993 176.887 23.1065 171.4 28.5942Z" fill="#EDB98A" stroke="black"/>
<path d="M147.01 79.2029L154.937 68.2275L143.352 57.8618C139.287 62.943 129.937 71.2762 125.059 75.5444C121.901 78.3076 108.393 87.536 101.889 92.6172C102.905 98.5114 102.423 106.032 110.426 114.568C118.428 123.104 131.767 121.885 137.254 123.104C141.644 124.08 143.961 130.828 144.571 134.08H161.034C161.522 116.519 158.799 104.406 157.376 100.544L147.01 79.2029Z" fill="#EDEDED" stroke="black"/>
<path d="M150.059 82.2516L158.595 77.3737L165.912 91.3978L156.156 95.0562L157.376 100.544L152.216 100.175C150.099 100.024 148.189 98.8509 147.098 97.0313L143.603 91.2071C142.329 89.0834 142.37 86.4207 143.709 84.3375L147.01 79.2029L150.059 82.2516Z" fill="#EDB98A" stroke="black"/>
<path d="M152.498 96.2756L156.156 95.0562" stroke="black" stroke-linecap="round"/>
<path d="M150.059 82.2516L145.791 84.6906" stroke="black" stroke-linecap="round"/>
<path d="M127.498 149.323C126.523 144.933 120.588 143.023 117.742 142.616V128.592L131.766 118.226C134.409 118.023 141.278 120.178 145.181 125.543C149.083 130.909 150.059 144.445 150.059 156.64C150.059 168.835 148.229 175.542 156.766 179.201C165.302 182.859 168.351 186.518 165.912 187.737C163.473 188.957 131.766 189.566 131.766 187.127C131.766 184.688 128.718 154.811 127.498 149.323Z" fill="#EDB98A" stroke="black"/>
<path d="M47.0122 173.713C52.8657 169.323 75.0604 154.404 85.4261 147.494L69.5727 115.787C63.4751 121.275 53.1093 132.86 40.9146 148.714C28.7199 164.567 22.372 174.543 14.6958 177.371C3.11049 181.64 -3.79046 187.737 4.93974 187.737C13.4762 187.737 31.7686 188.957 36.6465 187.737C41.5245 186.518 39.6953 179.201 47.0122 173.713Z" fill="#EDB98A" stroke="black"/>
<path d="M116.523 113.958C106.767 111.031 102.702 98.5114 101.889 92.6172C99.6535 93.6334 93.2308 97.0073 85.4261 102.373C77.6214 107.739 71.6052 113.552 69.5728 115.787C72.4995 130.909 81.3611 143.226 85.4261 147.494C88.6781 145.868 96.1576 142.372 100.06 141.397C103.962 140.421 113.474 141.803 117.743 142.616L132.376 118.226C131.157 118.023 126.279 116.885 116.523 113.958Z" fill="#161616" stroke="black"/>
<path d="M97.7192 103.859C99.4242 109.129 101.614 121.529 102.834 128.039C104.055 134.549 108.414 123.389 113.529 117.809" stroke="black" stroke-linecap="round"/>
<path d="M74.4692 114.554C75.7092 121.064 80.4212 135.851 89.349 142.919" stroke="black" stroke-linecap="round"/>
<path d="M113.064 138.734L126.084 118.739" stroke="black" stroke-linecap="round"/>
<path fill-rule="evenodd" clip-rule="evenodd" d="M181.301 87.823C183.488 85.0436 186.281 83.0166 186.606 79.3229C188.135 67.7535 173.906 58.1209 164.02 66.3462C162.679 67.0805 161.413 67.9727 160.291 69.0194C159.811 69.465 159.612 67.7113 158.935 67.8146C157.583 67.9039 156.205 70.0627 155.182 70.9053C154.338 71.8913 154.333 73.9184 154.65 75.0601C154.907 75.6897 154.958 76.4449 154.593 77.0569C153.297 79.9961 152.135 82.3394 152.074 85.3409C152.059 86.1147 153.56 92.6882 154.823 94.2218C158.52 98.7116 164.943 102.918 170.458 98.5344C171.666 97.5671 172.716 96.3789 173.801 95.2819C176.262 92.76 179.151 90.5568 181.301 87.823Z" fill="#EDB98A" stroke="black"/>
<path fill-rule="evenodd" clip-rule="evenodd" d="M182.552 86.6236C182.586 86.5979 182.63 86.6353 182.604 86.6706C182.099 87.3661 181.523 87.9992 180.979 88.6667C180.454 89.3095 179.922 89.9468 179.369 90.5672C178.327 91.7382 177.257 92.8823 176.176 94.0181L175.905 94.3019C173.999 96.2972 172.141 98.5307 169.711 99.9157C167.638 101.098 165.312 101.253 163.126 100.785C161.057 100.341 159.127 99.326 157.488 98.0904C155.729 96.7642 153.996 94.9018 154.203 92.4736C154.286 91.5014 155.936 91.3754 155.942 92.351C155.956 94.6417 157.722 96.1164 159.441 97.2992L159.493 97.335C161.004 98.3707 162.725 99.2488 164.617 99.5012C166.709 99.7803 168.735 99.102 170.48 97.7793C171.461 97.0362 172.341 96.1741 173.212 95.3093L173.309 95.2132C174.305 94.2239 175.296 93.23 176.295 92.2436C177.205 91.344 178.132 90.452 179.087 89.5973L179.57 89.1678C180.543 88.3005 181.519 87.4075 182.552 86.6236Z" fill="black"/>
<path fill-rule="evenodd" clip-rule="evenodd" d="M161.615 95.1343C160.919 94.6961 160.368 94.0638 160.069 93.2796C159.797 92.5683 159.738 91.6571 159.945 90.7984C160.129 90.0355 160.523 89.3153 161.158 88.8076C161.231 88.7496 161.309 88.7227 161.384 88.719C161.465 88.7149 161.542 88.7385 161.602 88.7817C161.665 88.8262 161.709 88.891 161.725 88.9644C161.739 89.0309 161.73 89.1046 161.691 89.1789C161.648 89.32 161.606 89.4596 161.568 89.5973C161.269 90.6936 161.138 91.6249 161.573 92.545C161.81 93.0442 162.196 93.4191 162.667 93.6672C163.171 93.9327 163.772 94.0531 164.391 94.0253C164.671 94.0127 164.868 94.1079 164.992 94.2568C165.133 94.4256 165.181 94.6678 165.141 94.9131C165.102 95.1543 164.977 95.3963 164.782 95.5698C164.61 95.7222 164.384 95.824 164.108 95.8255C163.201 95.8307 162.331 95.5853 161.615 95.1343ZM170.567 87.7325C170.646 88.7041 170.664 90.1866 169.051 90.399C167.468 90.39 167.373 88.6607 167.403 87.7047C167.356 86.8792 165.909 87.1002 165.862 87.9406C165.766 94.7491 173.298 91.279 171.329 87.629C171.113 87.2271 170.566 87.4612 170.567 87.7325ZM167.699 80.3962C167.681 80.078 167.538 79.8034 167.19 79.6554C166.918 79.5398 166.275 79.4739 165.611 79.6068C165.156 79.6977 164.687 79.8827 164.322 80.2252C164.237 80.3047 164.148 80.3301 164.061 80.3247C163.993 80.3204 163.922 80.2917 163.863 80.2379C163.812 80.1922 163.771 80.1285 163.749 80.0674C163.707 79.9511 163.735 79.8486 163.775 79.7859C164.158 79.1804 164.805 78.7722 165.494 78.5305C166.423 78.2043 167.412 78.1869 167.861 78.3394C168.629 78.6001 169.161 79.2157 169.264 80.0257C169.352 80.7152 169.123 81.3793 168.885 82.0493C168.834 82.1917 168.784 82.3331 168.737 82.475C168.643 82.7594 168.459 82.9314 168.253 83.0206C168.026 83.1194 167.759 83.1125 167.539 83.0108C167.335 82.9168 167.175 82.7445 167.121 82.5207C167.075 82.3316 167.1 82.1026 167.251 81.8462C167.506 81.4144 167.726 80.8636 167.699 80.3962V80.3962ZM175.193 91.1478C175 91.0786 174.888 90.9923 174.816 90.7989C174.776 90.6918 174.763 90.5641 174.784 90.4388C174.804 90.3145 174.857 90.1934 174.943 90.0923C175.156 89.843 175.291 89.5317 175.304 89.2367C175.314 88.9845 175.232 88.7445 175.026 88.5733C174.803 88.3885 174.471 88.312 174.162 88.3244C174.059 88.3285 173.956 88.3502 173.853 88.3713C173.661 88.4106 173.48 88.4442 173.301 88.4274C173.233 88.4211 173.161 88.3866 173.116 88.3325C173.098 88.3105 173.084 88.2849 173.074 88.2574C173.145 87.8327 173.301 87.6341 173.495 87.4859C173.699 87.3304 173.955 87.2337 174.233 87.19C174.884 87.0875 175.647 87.2821 176.001 87.5461C176.486 87.9076 176.723 88.468 176.73 89.0674C176.738 89.6842 176.502 90.3405 176.051 90.8557C175.942 90.9797 175.799 91.0826 175.647 91.1376C175.499 91.1913 175.342 91.2011 175.193 91.1478ZM171.92 79.7411C171.435 79.533 171.244 79.1573 171.057 78.7749C170.953 78.5626 170.87 78.3931 170.766 78.2338C170.48 77.7961 170.134 77.3851 169.719 77.0435C169.285 76.6863 168.78 76.3081 168.226 76.1003C168.095 76.0509 167.959 76.0081 167.824 75.9652C167.7 75.9261 167.581 75.8884 167.465 75.8458C167.331 75.7969 167.193 75.754 167.055 75.7114C166.946 75.6935 166.919 75.6914 166.892 75.6896C166.851 75.6867 166.805 75.6828 166.756 75.6775C166.687 75.6701 166.612 75.66 166.542 75.6464C166.417 75.6269 166.377 75.607 166.355 75.5857C166.319 75.5503 166.295 75.5133 166.287 75.472C166.28 75.4332 166.289 75.3916 166.31 75.3461C166.418 75.1187 166.673 74.9763 166.963 74.8839C167.404 74.7437 167.937 74.721 168.279 74.7505C169.074 74.819 169.936 74.9954 170.623 75.3254C171.408 75.7019 172.068 76.181 172.62 76.8007C172.963 77.1857 173.315 77.6471 173.458 78.1446C173.562 78.5026 173.555 78.8799 173.35 79.2591C173.224 79.492 172.99 79.6624 172.728 79.7507C172.462 79.8408 172.165 79.8463 171.92 79.7411ZM179.516 89.4744C179.479 89.5034 179.438 89.5168 179.4 89.5183C179.359 89.5199 179.32 89.5079 179.288 89.485C179.256 89.4622 179.231 89.4288 179.217 89.3889C179.204 89.3506 179.201 89.3064 179.212 89.2592C179.487 88.0925 179.437 87.1081 178.789 86.1924C178.471 85.7419 178.045 85.3538 177.631 85.0104C177.511 84.9106 177.376 84.8203 177.242 84.7293C176.819 84.4439 176.398 84.1459 176.292 83.5863C176.229 83.2493 176.302 82.8887 176.481 82.6099C176.649 82.3474 176.91 82.1553 177.241 82.12C178.066 82.0322 178.701 82.7771 179.21 83.3972C179.247 83.4432 179.284 83.4884 179.321 83.5323C179.821 84.1344 180.219 84.8098 180.433 85.6136C180.602 86.2513 180.643 87.0979 180.463 87.868C180.314 88.5086 180.013 89.0948 179.516 89.4744Z" fill="black"/>
<path fill-rule="evenodd" clip-rule="evenodd" d="M162.881 97.91C162.77 97.5569 162.68 97.1941 162.585 96.8338C162.313 94.8145 161.134 93.0758 159.281 92.2483C158.372 91.8422 157.228 91.7073 156.256 91.3489C156.046 91.2471 155.841 91.1382 155.646 91.0183C155.605 90.8796 155.568 90.7385 155.531 90.5982C155.269 89.5853 155.122 88.5503 155.033 87.5008C155.098 87.3274 155.158 87.1541 155.208 86.9793C155.691 87.3935 156.223 87.7514 156.721 88.0604C158.25 89.0105 159.997 89.6539 161.542 90.5833C162.981 91.4477 164.31 92.5782 164.781 94.2487C165.005 95.0416 164.979 95.9229 165.144 96.7377C165.229 97.1588 165.366 97.6361 165.625 97.997C164.79 98.3138 163.95 98.5366 163.128 98.5729C163.03 98.3604 162.952 98.1341 162.881 97.91ZM169.461 96.8987C169.284 96.8717 168.636 96.6918 168.344 96.7002C168.329 96.6525 168.315 96.6047 168.302 96.5567C168.332 96.4299 168.294 96.3114 168.217 96.2221C168.012 95.323 167.997 94.3852 168.146 93.4141C168.252 92.7245 168.369 92.0109 168.206 91.3393C168.016 90.5473 167.431 90.0955 166.9 89.5357C166.334 88.9408 166.014 88.157 165.401 87.602C164.952 87.1963 164.385 86.9374 163.78 86.8085C162.544 86.5453 161.258 86.7214 159.992 86.682C158.555 86.6371 157.281 86.176 156.185 85.3994C156.184 85.3802 156.182 85.3604 156.179 85.3412C156.292 84.0104 156.557 82.6745 156.938 81.3715C157.31 80.0992 159.871 75.4449 159.903 74.8032C159.917 74.5365 159.839 74.3203 159.703 74.1649C159.458 73.8818 159.021 73.7932 158.581 73.9548C157.833 74.2299 157.166 74.9494 156.572 75.4653C155.845 76.0974 155.14 76.7543 154.46 77.4355C153.787 78.1089 153.137 78.8039 152.51 79.5181C152.193 79.8788 151.882 80.2456 151.578 80.6178C151.483 80.7348 151.404 80.8478 151.337 80.9608C151.187 81.1438 151.04 81.329 150.896 81.5156C149.955 82.7367 149.138 84.1126 148.94 85.6183C148.734 87.1863 149.073 88.8068 149.409 90.2948C149.729 91.712 150.144 93.131 150.679 94.4973C150.992 95.8093 151.455 97.1085 152.093 98.2705C152.794 99.55 153.74 100.724 155.035 101.452C155.671 101.809 156.364 102.072 157.09 102.231C157.974 102.575 158.939 102.745 159.978 102.679C161.839 102.561 163.587 101.798 165.192 100.771C165.603 100.509 167.175 99.4986 167.409 99.3283C168.164 98.7783 168.92 98.2283 169.676 97.6783C170.032 97.4187 169.811 96.9521 169.461 96.8987Z" fill="black"/>
<path fill-rule="evenodd" clip-rule="evenodd" d="M158.058 70.2911C158.355 70.7896 158.556 71.2804 158.491 71.884C158.42 72.5388 158.117 73.0881 157.728 73.6361C157.286 74.2595 156.27 73.4131 156.956 72.8702L156.977 72.8538C157.183 72.7007 157.361 72.4931 157.509 72.2571C157.41 72.2365 157.315 72.1959 157.247 72.1329C157.164 72.0567 157.149 71.9016 157.271 71.8337C157.406 71.7584 157.59 71.725 157.739 71.759L157.759 71.7637V71.7637C157.954 71.2778 158.034 70.7471 157.971 70.3215C157.965 70.2789 158.036 70.2545 158.058 70.2911Z" fill="#231F20"/>
<path d="M61.9719 131.906L67.8795 137.132C68.5611 136.905 70.3789 136.132 74.9232 135.769C79.4675 135.405 82.5728 136.148 84.239 136.451C85.9053 134.027 89.4196 129.225 90.1467 129.407C90.8737 129.589 90.4496 135.542 90.1467 138.496C90.904 139.632 92.6006 143.267 93.3277 148.72C94.2365 155.537 92.646 164.398 94.2365 171.896C95.509 177.895 99.0081 185.302 100.599 188.256C99.508 189.528 97.872 189.846 97.1904 189.846C94.4638 190.755 85.9053 191.134 81.9669 191.21C80.9823 191.664 78.8767 192.527 78.3314 192.346C77.7861 192.164 76.5894 191.513 76.0593 191.21H65.8345C57.2003 191.21 54.4737 189.846 49.9294 189.846C45.3851 189.846 31.7521 192.118 24.7084 193.709C17.6648 195.3 13.5749 196.208 13.1205 193.709C12.666 191.21 13.1205 189.392 21.3002 186.438C27.844 184.075 39.629 180.909 44.7035 179.622C42.4313 155.082 52.8832 122.59 54.2465 121.682C55.6098 120.773 61.9719 120.773 61.9719 121.682V131.906Z" fill="#BFBFBF" stroke="#151C35" stroke-linecap="round"/>
<path d="M85.1479 175.305L89.6923 183.03" stroke="#151C35" stroke-linecap="round"/>
<path d="M61.9719 131.906C61.4417 131.452 60.2905 130.543 59.9269 130.543C59.5634 130.543 60.5329 136.905 61.063 140.086C60.1542 142.737 58.3364 149.993 58.3364 157.809C58.3364 165.625 61.5175 172.578 63.108 175.077" stroke="#151C35" stroke-linecap="round"/>
<path d="M76.0594 191.21C74.1659 189.619 69.4247 185.029 65.6074 179.394" stroke="#151C35" stroke-linecap="round"/>
<path d="M81.9672 191.21C82.5731 190.907 83.8304 190.165 84.0121 189.619C84.1939 189.074 79.2406 178.486 76.7412 173.26" stroke="#151C35" stroke-linecap="round"/>
<path d="M80.6035 181.667C85.2236 182.348 94.7364 183.757 95.827 183.939C97.1903 184.166 97.6447 184.166 97.6447 185.757C97.6447 187.347 97.4175 189.165 97.1903 189.846" stroke="#151C35" stroke-linecap="round"/>
<path d="M47.6572 179.394L51.0655 180.985" stroke="#151C35" stroke-width="0.5" stroke-linecap="round"/>
<path d="M49.7023 178.486L48.7935 182.348" stroke="#151C35" stroke-width="0.5" stroke-linecap="round"/>
<path d="M53.7922 183.257C53.1863 182.575 52.1563 180.667 52.8834 178.486C53.7922 175.759 56.9733 175.077 58.791 175.986C60.2452 176.713 60.7602 178.258 60.8359 178.94" stroke="#151C35" stroke-linecap="round"/>
<path d="M60.8361 180.303C60.8361 181.136 60.2454 182.984 57.8823 183.712" stroke="#151C35" stroke-linecap="round"/>
<path d="M53.3377 177.577C52.5804 177.425 50.9747 176.622 50.6112 174.623C50.1567 172.124 51.9745 170.533 53.7922 170.306C55.6099 170.079 58.1093 171.215 57.8821 174.168" stroke="#151C35" stroke-linecap="round"/>
<path d="M73.5597 148.357C73.7415 148.539 75.3017 149.796 76.0591 150.402C76.968 149.72 78.5585 148.584 78.7857 148.357C79.1449 147.998 77.6496 147.448 76.0591 147.448C74.4686 147.448 73.3325 148.13 73.5597 148.357Z" fill="#151C35"/>
<path d="M76.0591 149.402V152.583C76.362 153.113 77.3769 154.219 79.0129 154.401C80.6488 154.583 81.8152 153.871 82.1939 153.492" stroke="#151C35" stroke-linecap="round"/>
<path d="M76.0593 152.583C75.4534 153.643 73.469 155.355 70.3789 153.719" stroke="#151C35" stroke-linecap="round"/>
<ellipse cx="68.3338" cy="143.04" rx="1.13608" ry="1.3633" fill="#151C35"/>
<path d="M70 137.5C71.6667 141.167 76.3 146.3 81.5 137.5C79.1 134.3 72.8333 136.167 70 137.5Z" fill="white" stroke="white"/>
<ellipse cx="83.3304" cy="143.04" rx="1.13608" ry="1.3633" fill="#151C35"/>
<path d="M67.8794 137.132C67.2735 137.359 65.8799 137.905 65.1528 138.268" stroke="#151C35" stroke-linecap="round"/>
<path d="M84.2393 136.451C84.9966 136.678 86.6932 137.223 87.4203 137.587" stroke="#151C35" stroke-linecap="round"/>
<path d="M62.1992 148.948L66.7435 147.357" stroke="#151C35" stroke-width="0.5" stroke-linecap="round"/>
<path d="M89.9194 148.948L85.3751 147.357" stroke="#151C35" stroke-width="0.5" stroke-linecap="round"/>
<path d="M65.3804 150.538L67.6525 148.72" stroke="#151C35" stroke-width="0.5" stroke-linecap="round"/>
<path d="M86.7383 150.538L84.4661 148.72" stroke="#151C35" stroke-width="0.5" stroke-linecap="round"/>
<defs>
<linearGradient id="paint0_linear_329_2326" x1="112.5" y1="23.5009" x2="112.5" y2="168.001" gradientUnits="userSpaceOnUse">
<stop stop-color="#DB2777"/>
<stop offset="1" stop-color="#9333EA"/>
</linearGradient>
</defs>
</svg>
